<?xml version="1.0" encoding="iso-8859-1"?>
<!-- Uploaded to: SVG Repo, www.svgrepo.com, Generator: SVG Repo Mixer Tools -->
<svg version="1.1" id="Layer_1" xmlns="http://www.w3.org/2000/svg" xmlns:xlink="http://www.w3.org/1999/xlink" 
	 viewBox="0 0 512 512" xml:space="preserve">
<path style="fill:#64666D;" d="M281.386,84.977v136.818h51.307v213.779h-51.307v68.409h86.046c18.891,0,34.205-15.314,34.205-34.205
	V119.182c0-18.891-15.314-34.205-34.205-34.205H281.386z"/>
<rect x="110.363" y="84.977" style="fill:#F9D84E;" width="171.023" height="136.818"/>
<polygon style="fill:#FFC20D;" points="127.466,204.693 127.466,84.977 110.363,84.977 110.363,221.795 281.386,221.795 
	281.386,204.693 "/>
<rect x="110.363" y="435.574" style="fill:#F9D84E;" width="171.023" height="68.409"/>
<polygon style="fill:#FFC20D;" points="127.466,486.881 127.466,435.574 110.363,435.574 110.363,503.983 281.386,503.983 
	281.386,486.881 "/>
<rect x="153.119" y="221.795" style="fill:#E9E9EA;" width="179.574" height="213.779"/>
<rect x="153.119" y="221.795" style="fill:#BDBDC0;" width="17.102" height="213.779"/>
<rect x="212.977" y="8.017" style="fill:#A7A7AB;" width="25.653" height="76.96"/>
<g>
	<rect x="178.772" y="315.858" style="fill:#4E5058;" width="25.653" height="25.653"/>
	<rect x="230.079" y="315.858" style="fill:#4E5058;" width="25.653" height="25.653"/>
	<rect x="281.386" y="315.858" style="fill:#4E5058;" width="25.653" height="25.653"/>
	<rect x="178.772" y="375.716" style="fill:#4E5058;" width="25.653" height="25.653"/>
	<rect x="230.079" y="375.716" style="fill:#4E5058;" width="25.653" height="25.653"/>
	<rect x="281.386" y="375.716" style="fill:#4E5058;" width="25.653" height="25.653"/>
</g>
<rect x="178.772" y="256" style="fill:#97C95D;" width="51.307" height="34.205"/>
<rect x="255.733" y="256" style="fill:#FD7EAA;" width="51.307" height="34.205"/>
<path d="M401.637,161.403c4.428,0,8.017-3.588,8.017-8.017v-34.205c0-23.281-18.941-42.221-42.221-42.221H246.647V8.017
	c0-4.428-3.589-8.017-8.017-8.017h-25.653c-4.427,0-8.017,3.588-8.017,8.017V76.96h-94.597c-4.427,0-8.017,3.588-8.017,8.017
	v136.818c0,4.428,3.589,8.017,8.017,8.017h34.739v111.699c0,4.428,3.589,8.017,8.017,8.017s8.017-3.588,8.017-8.017V229.812h163.541
	v197.745H161.136v-51.841c0-4.428-3.589-8.017-8.017-8.017s-8.017,3.588-8.017,8.017v51.841h-34.739
	c-4.427,0-8.017,3.588-8.017,8.017v68.409c0,4.428,3.589,8.017,8.017,8.017h257.069c23.28,0,42.221-18.941,42.221-42.221V187.591
	c0-4.428-3.588-8.017-8.017-8.017s-8.017,3.588-8.017,8.017v282.188c0,14.441-11.747,26.188-26.188,26.188h-78.029v-52.376h43.29
	c4.428,0,8.017-3.588,8.017-8.017V221.795c0-4.428-3.588-8.017-8.017-8.017h-43.29V92.994h78.029
	c14.441,0,26.188,11.747,26.188,26.188v34.205C393.62,157.815,397.208,161.403,401.637,161.403z M273.37,495.967H118.38v-52.376
	h154.99V495.967z M220.994,16.033h9.62V76.96h-9.62V16.033z M118.38,213.779V92.994h154.99v120.785H118.38z"/>
<path d="M145.637,111.165h-1.069c-4.427,0-8.017,3.588-8.017,8.017c0,4.428,3.589,8.017,8.017,8.017h1.069
	c4.427,0,8.017-3.588,8.017-8.017C153.653,114.753,150.064,111.165,145.637,111.165z"/>
<path d="M179.841,111.165h-1.069c-4.427,0-8.017,3.588-8.017,8.017c0,4.428,3.589,8.017,8.017,8.017h1.069
	c4.427,0,8.017-3.588,8.017-8.017C187.858,114.753,184.269,111.165,179.841,111.165z"/>
<path d="M214.046,111.165h-1.069c-4.427,0-8.017,3.588-8.017,8.017c0,4.428,3.589,8.017,8.017,8.017h1.069
	c4.427,0,8.017-3.588,8.017-8.017C222.063,114.753,218.473,111.165,214.046,111.165z"/>
<path d="M248.251,111.165h-1.069c-4.427,0-8.017,3.588-8.017,8.017c0,4.428,3.589,8.017,8.017,8.017h1.069
	c4.427,0,8.017-3.588,8.017-8.017C256.267,114.753,252.678,111.165,248.251,111.165z"/>
<path d="M145.637,145.37h-1.069c-4.427,0-8.017,3.588-8.017,8.017c0,4.428,3.589,8.017,8.017,8.017h1.069
	c4.427,0,8.017-3.588,8.017-8.017C153.653,148.958,150.064,145.37,145.637,145.37z"/>
<path d="M179.841,145.37h-1.069c-4.427,0-8.017,3.588-8.017,8.017c0,4.428,3.589,8.017,8.017,8.017h1.069
	c4.427,0,8.017-3.588,8.017-8.017C187.858,148.958,184.269,145.37,179.841,145.37z"/>
<path d="M214.046,145.37h-1.069c-4.427,0-8.017,3.588-8.017,8.017c0,4.428,3.589,8.017,8.017,8.017h1.069
	c4.427,0,8.017-3.588,8.017-8.017C222.063,148.958,218.473,145.37,214.046,145.37z"/>
<path d="M248.251,145.37h-1.069c-4.427,0-8.017,3.588-8.017,8.017c0,4.428,3.589,8.017,8.017,8.017h1.069
	c4.427,0,8.017-3.588,8.017-8.017C256.267,148.958,252.678,145.37,248.251,145.37z"/>
<path d="M145.637,179.574h-1.069c-4.427,0-8.017,3.588-8.017,8.017s3.589,8.017,8.017,8.017h1.069c4.427,0,8.017-3.588,8.017-8.017
	S150.064,179.574,145.637,179.574z"/>
<path d="M179.841,179.574h-1.069c-4.427,0-8.017,3.588-8.017,8.017s3.589,8.017,8.017,8.017h1.069c4.427,0,8.017-3.588,8.017-8.017
	S184.269,179.574,179.841,179.574z"/>
<path d="M214.046,179.574h-1.069c-4.427,0-8.017,3.588-8.017,8.017s3.589,8.017,8.017,8.017h1.069c4.427,0,8.017-3.588,8.017-8.017
	S218.473,179.574,214.046,179.574z"/>
<path d="M248.251,179.574h-1.069c-4.427,0-8.017,3.588-8.017,8.017s3.589,8.017,8.017,8.017h1.069c4.427,0,8.017-3.588,8.017-8.017
	S252.678,179.574,248.251,179.574z"/>
<path d="M144.568,453.211c-4.427,0-8.017,3.588-8.017,8.017v17.102c0,4.428,3.589,8.017,8.017,8.017s8.017-3.588,8.017-8.017
	v-17.102C152.585,456.799,148.995,453.211,144.568,453.211z"/>
<path d="M178.772,486.347c4.427,0,8.017-3.588,8.017-8.017v-17.102c0-4.428-3.589-8.017-8.017-8.017s-8.017,3.588-8.017,8.017
	v17.102C170.756,482.758,174.345,486.347,178.772,486.347z"/>
<path d="M212.977,486.347c4.427,0,8.017-3.588,8.017-8.017v-17.102c0-4.428-3.589-8.017-8.017-8.017s-8.017,3.588-8.017,8.017
	v17.102C204.96,482.758,208.55,486.347,212.977,486.347z"/>
<path d="M247.182,486.347c4.427,0,8.017-3.588,8.017-8.017v-17.102c0-4.428-3.589-8.017-8.017-8.017
	c-4.427,0-8.017,3.588-8.017,8.017v17.102C239.165,482.758,242.754,486.347,247.182,486.347z"/>
<path d="M170.756,341.511c0,4.428,3.589,8.017,8.017,8.017h25.653c4.427,0,8.017-3.588,8.017-8.017v-25.653
	c0-4.428-3.589-8.017-8.017-8.017h-25.653c-4.427,0-8.017,3.588-8.017,8.017V341.511z M186.789,323.875h9.62v9.62h-9.62V323.875z"/>
<path d="M222.063,315.858v25.653c0,4.428,3.589,8.017,8.017,8.017h25.653c4.427,0,8.017-3.588,8.017-8.017v-25.653
	c0-4.428-3.589-8.017-8.017-8.017h-25.653C225.652,307.841,222.063,311.43,222.063,315.858z M238.096,323.875h9.62v9.62h-9.62
	V323.875z"/>
<path d="M315.056,315.858c0-4.428-3.588-8.017-8.017-8.017h-25.653c-4.428,0-8.017,3.588-8.017,8.017v25.653
	c0,4.428,3.588,8.017,8.017,8.017h25.653c4.428,0,8.017-3.588,8.017-8.017V315.858z M299.023,333.495h-9.62v-9.62h9.62V333.495z"/>
<path d="M170.756,401.37c0,4.428,3.589,8.017,8.017,8.017h25.653c4.427,0,8.017-3.588,8.017-8.017v-25.653
	c0-4.428-3.589-8.017-8.017-8.017h-25.653c-4.427,0-8.017,3.588-8.017,8.017V401.37z M186.789,383.733h9.62v9.62h-9.62V383.733z"/>
<path d="M255.733,367.699h-25.653c-4.427,0-8.017,3.588-8.017,8.017v25.653c0,4.428,3.589,8.017,8.017,8.017h25.653
	c4.427,0,8.017-3.588,8.017-8.017v-25.653C263.749,371.288,260.16,367.699,255.733,367.699z M247.716,393.353h-9.62v-9.62h9.62
	V393.353z"/>
<path d="M307.04,367.699h-25.653c-4.428,0-8.017,3.588-8.017,8.017v25.653c0,4.428,3.588,8.017,8.017,8.017h25.653
	c4.428,0,8.017-3.588,8.017-8.017v-25.653C315.056,371.288,311.468,367.699,307.04,367.699z M299.023,393.353h-9.62v-9.62h9.62
	V393.353z"/>
<path d="M230.079,247.983h-51.307c-4.427,0-8.017,3.588-8.017,8.017v34.205c0,4.428,3.589,8.017,8.017,8.017h51.307
	c4.427,0,8.017-3.588,8.017-8.017V256C238.096,251.572,234.507,247.983,230.079,247.983z M222.063,282.188h-35.273v-18.171h35.273
	V282.188z"/>
<path d="M315.056,256c0-4.428-3.588-8.017-8.017-8.017h-51.307c-4.427,0-8.017,3.588-8.017,8.017v34.205
	c0,4.428,3.589,8.017,8.017,8.017h51.307c4.428,0,8.017-3.588,8.017-8.017V256z M299.023,282.188h-35.273v-18.171h35.273V282.188z"
	/>
</svg>