<?xml version="1.0" encoding="UTF-8"?>
<svg xmlns="http://www.w3.org/2000/svg" xmlns:xlink="http://www.w3.org/1999/xlink" width="32px" height="32px" viewBox="0 0 32 32" version="1.1">
<g id="surface1">
<path style=" stroke:none;fill-rule:nonzero;fill:rgb(58.823532%,47.843137%,26.666668%);fill-opacity:1;" d="M 15.199219 2.972656 L 16 2.972656 L 16 20.34375 L 15.199219 20.34375 Z M 15.199219 2.972656 "/>
<path style=" stroke:none;fill-rule:nonzero;fill:rgb(100%,76.862746%,61.176473%);fill-opacity:1;" d="M 5.6875 27 C 5.269531 26.539062 2.703125 23.5625 2.601562 20.199219 L 28.59375 20.199219 C 28.4375 22.890625 25.191406 26.484375 24.714844 27 Z M 5.6875 27 "/>
<path style=" stroke:none;fill-rule:nonzero;fill:rgb(63.137257%,41.568628%,29.019609%);fill-opacity:1;" d="M 28.375 20.398438 C 28.085938 22.902344 25.238281 26.132812 24.625 26.800781 L 5.777344 26.800781 C 5.246094 26.199219 2.996094 23.480469 2.8125 20.398438 L 28.375 20.398438 M 28.800781 20 L 2.398438 20 C 2.398438 23.851562 5.601562 27.199219 5.601562 27.199219 L 24.800781 27.199219 C 24.800781 27.199219 28.800781 23.015625 28.800781 20 Z M 28.800781 20 "/>
<path style=" stroke:none;fill-rule:nonzero;fill:rgb(76.078433%,90.980393%,100%);fill-opacity:1;" d="M 18.660156 18.976562 C 20.492188 11.234375 18.121094 4.855469 17.261719 2.914062 C 19.503906 4.324219 27.679688 10.027344 27.796875 18.214844 Z M 18.660156 18.976562 "/>
<path style=" stroke:none;fill-rule:nonzero;fill:rgb(45.490196%,58.823532%,76.862746%);fill-opacity:1;" d="M 17.714844 3.445312 C 20.460938 5.277344 27.371094 10.609375 27.59375 18.03125 L 18.917969 18.753906 C 20.515625 11.671875 18.710938 5.882812 17.714844 3.445312 M 16.800781 2.398438 C 16.800781 2.398438 20.742188 9.761719 18.398438 19.199219 L 28 18.398438 C 28 8.625 16.800781 2.398438 16.800781 2.398438 Z M 16.800781 2.398438 "/>
<path style=" stroke:none;fill-rule:nonzero;fill:rgb(76.078433%,90.980393%,100%);fill-opacity:1;" d="M 3.574219 16.667969 C 8.621094 10.675781 14.332031 3.296875 15.800781 1.390625 L 15.800781 18.960938 Z M 3.574219 16.667969 "/>
<path style=" stroke:none;fill-rule:nonzero;fill:rgb(45.490196%,58.823532%,76.862746%);fill-opacity:1;" d="M 15.601562 1.976562 L 15.601562 18.71875 L 3.949219 16.53125 C 8.597656 11 13.742188 4.382812 15.601562 1.976562 M 16 0.800781 C 16 0.800781 9.136719 9.78125 3.199219 16.800781 L 16 19.199219 C 16 7.59375 16 0.800781 16 0.800781 Z M 16 0.800781 "/>
<path style=" stroke:none;fill-rule:nonzero;fill:rgb(54.509807%,71.764708%,94.117647%);fill-opacity:1;" d="M 0.800781 31.199219 L 31.199219 31.199219 L 31.199219 25.503906 C 30.152344 25.289062 28.917969 24.800781 28 24.800781 C 26.832031 24.800781 25.148438 25.601562 24 25.601562 C 22.851562 25.601562 21.167969 24.800781 20 24.800781 C 18.832031 24.800781 17.148438 25.601562 16 25.601562 C 14.851562 25.601562 13.167969 24.800781 12 24.800781 C 10.832031 24.800781 9.148438 25.601562 8 25.601562 C 6.851562 25.601562 5.167969 24.800781 4 24.800781 C 3.082031 24.800781 1.847656 25.289062 0.800781 25.503906 Z M 0.800781 31.199219 "/>
<path style=" stroke:none;fill-rule:nonzero;fill:rgb(30.588236%,47.843137%,70.980394%);fill-opacity:1;" d="M 28 24.800781 C 26.832031 24.800781 25.148438 25.601562 24 25.601562 C 22.851562 25.601562 21.167969 24.800781 20 24.800781 C 18.832031 24.800781 17.148438 25.601562 16 25.601562 C 14.851562 25.601562 13.167969 24.800781 12 24.800781 C 10.832031 24.800781 9.148438 25.601562 8 25.601562 C 6.851562 25.601562 5.167969 24.800781 4 24.800781 C 3.082031 24.800781 1.847656 25.289062 0.800781 25.503906 L 0.800781 25.902344 C 1.847656 25.691406 3.082031 25.199219 4 25.199219 C 5.167969 25.199219 6.851562 26 8 26 C 9.148438 26 10.832031 25.199219 12 25.199219 C 13.167969 25.199219 14.851562 26 16 26 C 17.148438 26 18.832031 25.199219 20 25.199219 C 21.167969 25.199219 22.851562 26 24 26 C 25.148438 26 26.832031 25.199219 28 25.199219 C 28.917969 25.199219 30.152344 25.691406 31.199219 25.902344 L 31.199219 25.503906 C 30.152344 25.289062 28.917969 24.800781 28 24.800781 Z M 28 24.800781 "/>
</g>
</svg>
